<svg width="240" height="40" viewBox="0 0 240 40" fill="none" xmlns="http://www.w3.org/2000/svg">
<path d="M66.5287 10.2396C67.1722 10.2396 67.7044 10.45 68.1251 10.8707C68.5459 11.2915 68.7563 11.836 68.7563 12.5043V28.2086C68.7563 28.8522 68.5459 29.3967 68.1251 29.8422C67.7044 30.263 67.1722 30.4733 66.5287 30.4733C65.8852 30.4733 65.353 30.263 64.9323 29.8422C64.5363 29.4214 64.3259 28.8893 64.3011 28.2458C63.6824 28.9635 62.8408 29.5823 61.7765 30.1021C60.737 30.5971 59.6356 30.8446 58.4723 30.8446C56.7645 30.8446 55.2176 30.4115 53.8316 29.5452C52.4455 28.6542 51.3441 27.429 50.5273 25.8697C49.7353 24.3104 49.3393 22.5407 49.3393 20.5607C49.3393 18.5806 49.7353 16.8109 50.5273 15.2516C51.3194 13.6676 52.396 12.4424 53.7573 11.5761C55.1433 10.6851 56.6655 10.2396 58.3238 10.2396C59.5119 10.2396 60.6256 10.4624 61.6652 10.9079C62.7047 11.3286 63.5834 11.8731 64.3011 12.5414V12.5043C64.3011 11.8608 64.5115 11.3286 64.9323 10.9079C65.353 10.4624 65.8852 10.2396 66.5287 10.2396ZM59.0292 26.7607C60.638 26.7607 61.9498 26.1791 62.9646 25.0158C63.9794 23.8278 64.4868 22.3427 64.4868 20.5607C64.4868 18.7786 63.9794 17.2936 62.9646 16.1055C61.9498 14.9175 60.638 14.3235 59.0292 14.3235C57.4452 14.3235 56.1458 14.9175 55.131 16.1055C54.1162 17.2936 53.6088 18.7786 53.6088 20.5607C53.6088 22.3427 54.1038 23.8278 55.0938 25.0158C56.1086 26.1791 57.4204 26.7607 59.0292 26.7607Z" fill="#26212B"/>
<path d="M83.8683 10.2396C85.5761 10.2396 87.1231 10.6851 88.5091 11.5761C89.8951 12.4424 90.9842 13.6552 91.7762 15.2145C92.593 16.7738 93.0014 18.5435 93.0014 20.5235C93.0014 22.5036 92.6054 24.2857 91.8133 25.8697C91.0213 27.429 89.9323 28.6542 88.5462 29.5452C87.1849 30.4115 85.6751 30.8446 84.0168 30.8446C82.8288 30.8446 81.7026 30.6095 80.6384 30.1392C79.5988 29.6442 78.7326 29.0502 78.0395 28.3571V28.5799C78.0395 29.2234 77.8292 29.7679 77.4084 30.2135C76.9876 30.6342 76.4555 30.8446 75.812 30.8446C75.1684 30.8446 74.6363 30.6342 74.2155 30.2135C73.7948 29.7927 73.5844 29.2482 73.5844 28.5799V5.26469C73.5844 4.62117 73.7948 4.08903 74.2155 3.66827C74.6363 3.22276 75.1684 3 75.812 3C76.4555 3 76.9876 3.22276 77.4084 3.66827C77.8292 4.08903 78.0395 4.62117 78.0395 5.26469V13.0241C78.6336 12.2815 79.4627 11.638 80.527 11.0935C81.5913 10.5242 82.7051 10.2396 83.8683 10.2396ZM83.3114 26.7607C84.8955 26.7607 86.1949 26.1667 87.2097 24.9787C88.2245 23.7906 88.7319 22.3056 88.7319 20.5235C88.7319 18.7415 88.2245 17.2688 87.2097 16.1055C86.2197 14.9175 84.9202 14.3235 83.3114 14.3235C81.7026 14.3235 80.3909 14.9175 79.3761 16.1055C78.3613 17.2688 77.8539 18.7415 77.8539 20.5235C77.8539 22.3056 78.3613 23.7906 79.3761 24.9787C80.3909 26.1667 81.7026 26.7607 83.3114 26.7607Z" fill="#26212B"/>
<path d="M115.799 20.5607C115.799 22.5407 115.353 24.3228 114.462 25.9068C113.571 27.4661 112.346 28.6789 110.787 29.5452C109.252 30.4115 107.557 30.8446 105.7 30.8446C103.819 30.8446 102.111 30.4115 100.577 29.5452C99.0423 28.6789 97.8295 27.4661 96.9385 25.9068C96.0475 24.3228 95.6019 22.5407 95.6019 20.5607C95.6019 18.5806 96.0475 16.8109 96.9385 15.2516C97.8295 13.6676 99.0423 12.4424 100.577 11.5761C102.111 10.6851 103.819 10.2396 105.7 10.2396C107.557 10.2396 109.252 10.6851 110.787 11.5761C112.346 12.4424 113.571 13.6676 114.462 15.2516C115.353 16.8109 115.799 18.5806 115.799 20.5607ZM111.343 20.5607C111.343 19.3479 111.084 18.2712 110.564 17.3307C110.069 16.3654 109.388 15.6229 108.522 15.1031C107.68 14.5834 106.74 14.3235 105.7 14.3235C104.661 14.3235 103.708 14.5834 102.842 15.1031C102 15.6229 101.319 16.3654 100.8 17.3307C100.305 18.2712 100.057 19.3479 100.057 20.5607C100.057 21.7734 100.305 22.8501 100.8 23.7906C101.319 24.7312 102 25.4613 102.842 25.9811C103.708 26.5008 104.661 26.7607 105.7 26.7607C106.74 26.7607 107.68 26.5008 108.522 25.9811C109.388 25.4613 110.069 24.7312 110.564 23.7906C111.084 22.8501 111.343 21.7734 111.343 20.5607Z" fill="#26212B"/>
<path d="M134.26 10.6109C134.903 10.6109 135.435 10.8336 135.856 11.2791C136.277 11.6999 136.487 12.232 136.487 12.8755V22.3056C136.487 24.9787 135.745 27.0701 134.26 28.5799C132.8 30.0897 130.708 30.8446 127.985 30.8446C125.263 30.8446 123.171 30.0897 121.711 28.5799C120.251 27.0701 119.521 24.9787 119.521 22.3056V12.8755C119.521 12.232 119.731 11.6999 120.152 11.2791C120.573 10.8336 121.105 10.6109 121.748 10.6109C122.392 10.6109 122.924 10.8336 123.345 11.2791C123.765 11.6999 123.976 12.232 123.976 12.8755V22.3056C123.976 23.8154 124.31 24.9415 124.978 25.6841C125.647 26.4018 126.649 26.7607 127.985 26.7607C129.347 26.7607 130.362 26.4018 131.03 25.6841C131.698 24.9415 132.032 23.8154 132.032 22.3056V12.8755C132.032 12.232 132.243 11.6999 132.663 11.2791C133.084 10.8336 133.616 10.6109 134.26 10.6109Z" fill="#26212B"/>
<path d="M150.889 26.2781C151.236 26.2781 151.545 26.4513 151.817 26.7979C152.114 27.1196 152.263 27.5527 152.263 28.0973C152.263 28.7655 151.892 29.3348 151.149 29.8051C150.431 30.2506 149.614 30.4733 148.699 30.4733C147.164 30.4733 145.865 30.1516 144.8 29.5081C143.761 28.8398 143.241 27.4414 143.241 25.3128V15.066H141.533C140.939 15.066 140.444 14.868 140.048 14.472C139.652 14.076 139.454 13.5809 139.454 12.9869C139.454 12.4177 139.652 11.9474 140.048 11.5761C140.444 11.1801 140.939 10.9821 141.533 10.9821H143.241V8.60604C143.241 7.96253 143.452 7.43038 143.872 7.00962C144.318 6.56411 144.862 6.34135 145.506 6.34135C146.125 6.34135 146.644 6.56411 147.065 7.00962C147.486 7.43038 147.696 7.96253 147.696 8.60604V10.9821H150.332C150.926 10.9821 151.421 11.1801 151.817 11.5761C152.213 11.9721 152.411 12.4672 152.411 13.0612C152.411 13.6304 152.213 14.1131 151.817 14.5091C151.421 14.8804 150.926 15.066 150.332 15.066H147.696V25.1272C147.696 25.6469 147.832 26.0306 148.105 26.2781C148.377 26.5008 148.748 26.6122 149.218 26.6122C149.416 26.6122 149.689 26.5627 150.035 26.4637C150.332 26.34 150.617 26.2781 150.889 26.2781Z" fill="#26212B"/>
<path d="M173.06 11.5019C173.382 11.5019 173.642 11.6133 173.84 11.836C174.063 12.034 174.174 12.3063 174.174 12.6528V28.7284C174.174 30.659 173.765 32.3049 172.949 33.6662C172.157 35.0522 171.055 36.1041 169.644 36.8219C168.258 37.5397 166.662 37.8986 164.855 37.8986C163.989 37.8986 163.073 37.7872 162.108 37.5644C161.167 37.3417 160.351 37.057 159.658 36.7105C158.989 36.364 158.606 36.0051 158.507 35.6339C158.333 35.4606 158.247 35.2626 158.247 35.0399C158.247 34.7923 158.358 34.5943 158.581 34.4458C158.68 34.3716 158.804 34.3345 158.952 34.3345C159.101 34.3345 159.385 34.4211 159.806 34.5943L160.586 34.9285C162.12 35.5225 163.556 35.8195 164.892 35.8195C167.095 35.8195 168.815 35.1884 170.053 33.9261C171.315 32.6885 171.946 31.0055 171.946 28.8769V26.5751C171.328 27.9116 170.35 28.9635 169.013 29.7308C167.677 30.4733 166.278 30.8446 164.818 30.8446C163.11 30.8446 161.563 30.4238 160.177 29.5823C158.816 28.716 157.739 27.528 156.947 26.0182C156.155 24.5084 155.759 22.813 155.759 20.9319C155.759 19.0756 156.155 17.3926 156.947 15.8828C157.739 14.373 158.816 13.1973 160.177 12.3558C161.563 11.4895 163.098 11.0564 164.781 11.0564C166.34 11.0564 167.763 11.4524 169.05 12.2444C170.362 13.0117 171.328 13.9398 171.946 15.0289V12.6528C171.946 12.331 172.045 12.0588 172.243 11.836C172.466 11.6133 172.738 11.5019 173.06 11.5019ZM165.004 28.7655C166.365 28.7655 167.578 28.4438 168.642 27.8003C169.731 27.132 170.573 26.2038 171.167 25.0158C171.785 23.803 172.095 22.4417 172.095 20.9319C172.095 19.4221 171.785 18.0732 171.167 16.8852C170.573 15.6971 169.731 14.7814 168.642 14.1378C167.578 13.4696 166.365 13.1354 165.004 13.1354C163.667 13.1354 162.454 13.4819 161.365 14.175C160.301 14.8432 159.46 15.7714 158.841 16.9594C158.247 18.1475 157.95 19.4716 157.95 20.9319C157.95 22.417 158.247 23.7535 158.841 24.9415C159.46 26.1296 160.301 27.0701 161.365 27.7631C162.454 28.4314 163.667 28.7655 165.004 28.7655Z" fill="#26212B"/>
<path d="M196.843 20.969C196.843 22.8254 196.434 24.5084 195.617 26.0182C194.801 27.528 193.674 28.716 192.239 29.5823C190.803 30.4238 189.207 30.8446 187.45 30.8446C185.692 30.8446 184.096 30.4238 182.66 29.5823C181.225 28.716 180.099 27.528 179.282 26.0182C178.465 24.5084 178.057 22.8254 178.057 20.969C178.057 19.1127 178.465 17.4297 179.282 15.9199C180.099 14.4101 181.225 13.2221 182.66 12.3558C184.096 11.4895 185.692 11.0564 187.45 11.0564C189.207 11.0564 190.803 11.4895 192.239 12.3558C193.674 13.2221 194.801 14.4101 195.617 15.9199C196.434 17.4297 196.843 19.1127 196.843 20.969ZM194.615 20.969C194.615 19.484 194.306 18.1475 193.687 16.9594C193.068 15.7714 192.202 14.8432 191.088 14.175C189.999 13.4819 188.786 13.1354 187.45 13.1354C186.113 13.1354 184.9 13.4819 183.811 14.175C182.722 14.8432 181.856 15.7714 181.212 16.9594C180.594 18.1475 180.284 19.484 180.284 20.969C180.284 22.4293 180.594 23.7535 181.212 24.9415C181.856 26.1296 182.722 27.0701 183.811 27.7631C184.9 28.4314 186.113 28.7655 187.45 28.7655C188.786 28.7655 189.999 28.4314 191.088 27.7631C192.202 27.0949 193.068 26.1667 193.687 24.9787C194.306 23.7906 194.615 22.4541 194.615 20.969Z" fill="#26212B"/>
<path d="M218.922 20.969C218.922 22.8254 218.514 24.5084 217.697 26.0182C216.881 27.528 215.754 28.716 214.319 29.5823C212.883 30.4238 211.287 30.8446 209.53 30.8446C207.772 30.8446 206.176 30.4238 204.74 29.5823C203.305 28.716 202.179 27.528 201.362 26.0182C200.545 24.5084 200.137 22.8254 200.137 20.969C200.137 19.1127 200.545 17.4297 201.362 15.9199C202.179 14.4101 203.305 13.2221 204.74 12.3558C206.176 11.4895 207.772 11.0564 209.53 11.0564C211.287 11.0564 212.883 11.4895 214.319 12.3558C215.754 13.2221 216.881 14.4101 217.697 15.9199C218.514 17.4297 218.922 19.1127 218.922 20.969ZM216.695 20.969C216.695 19.484 216.386 18.1475 215.767 16.9594C215.148 15.7714 214.282 14.8432 213.168 14.175C212.079 13.4819 210.866 13.1354 209.53 13.1354C208.193 13.1354 206.98 13.4819 205.891 14.175C204.802 14.8432 203.936 15.7714 203.292 16.9594C202.674 18.1475 202.364 19.484 202.364 20.969C202.364 22.4293 202.674 23.7535 203.292 24.9415C203.936 26.1296 204.802 27.0701 205.891 27.7631C206.98 28.4314 208.193 28.7655 209.53 28.7655C210.866 28.7655 212.079 28.4314 213.168 27.7631C214.282 27.0949 215.148 26.1667 215.767 24.9787C216.386 23.7906 216.695 22.4541 216.695 20.969Z" fill="#26212B"/>
<path d="M238.886 3C239.208 3 239.468 3.11138 239.666 3.33414C239.889 3.53214 240 3.79202 240 4.11378V29.3596C240 29.6813 239.889 29.9536 239.666 30.1763C239.468 30.3743 239.208 30.4733 238.886 30.4733C238.564 30.4733 238.292 30.3743 238.069 30.1763C237.871 29.9536 237.772 29.6813 237.772 29.3596V26.7607C237.154 27.8993 236.225 28.8645 234.988 29.6566C233.775 30.4486 232.426 30.8446 230.941 30.8446C229.308 30.8446 227.823 30.4238 226.486 29.5823C225.174 28.716 224.135 27.528 223.367 26.0182C222.6 24.5084 222.217 22.813 222.217 20.9319C222.217 19.0756 222.6 17.3926 223.367 15.8828C224.135 14.373 225.174 13.1973 226.486 12.3558C227.823 11.4895 229.295 11.0564 230.904 11.0564C232.364 11.0564 233.713 11.4276 234.951 12.1702C236.188 12.8879 237.129 13.8285 237.772 14.9917V4.11378C237.772 3.79202 237.871 3.53214 238.069 3.33414C238.292 3.11138 238.564 3 238.886 3ZM231.164 28.7655C232.451 28.7655 233.602 28.4314 234.617 27.7631C235.656 27.0949 236.461 26.1667 237.03 24.9787C237.624 23.7659 237.921 22.417 237.921 20.9319C237.921 19.4716 237.624 18.1475 237.03 16.9594C236.461 15.7714 235.656 14.8432 234.617 14.175C233.602 13.4819 232.451 13.1354 231.164 13.1354C229.877 13.1354 228.714 13.4819 227.674 14.175C226.659 14.8432 225.855 15.7714 225.261 16.9594C224.692 18.1475 224.407 19.4716 224.407 20.9319C224.407 22.417 224.692 23.7535 225.261 24.9415C225.855 26.1296 226.659 27.0701 227.674 27.7631C228.714 28.4314 229.877 28.7655 231.164 28.7655Z" fill="#26212B"/>
<path d="M3.66116 19.7065C3.66116 19.6453 3.65962 19.584 3.65654 19.5228C3.64116 19.2174 3.68516 18.3727 3.98967 17.3708C4.28787 16.3897 4.77501 15.4568 5.48941 14.7473C6.63622 13.6083 7.99028 12.2951 9.25288 11.0824C9.99004 11.7536 10.9897 12.2568 12.2362 12.3259C15.9157 12.8303 18.7175 15.9629 18.7175 19.7065C18.7175 23.7984 15.3707 27.1582 11.1893 27.1582H10.701C10.092 27.1582 8.87402 27.5236 8.87402 28.9852C8.87402 29.5942 9.23942 30.8122 10.701 30.8122H11.1893C17.3651 30.8122 22.3715 25.84 22.3715 19.7065C22.3715 14.024 18.0742 9.33836 12.5312 8.67998C12.2904 8.67998 12.0901 8.62519 11.9243 8.53403C11.8038 8.4678 11.7015 8.38237 11.6151 8.28482C11.2901 7.91801 11.1893 7.37978 11.1893 7.04605V5.26914C11.1893 4.38068 10.5929 4.75087 10.2947 5.04703C10.2215 5.11596 10.1427 5.19012 10.059 5.26914C9.5772 5.72348 8.92844 6.33814 8.19155 7.04065L8.18589 7.04605C7.98562 7.23698 7.77885 7.43439 7.56718 7.63681C6.07565 9.06314 4.34046 10.7385 2.91452 12.1547C0.40971 14.6423 -0.0673965 18.2258 0.00715298 19.7065C0.00715298 20.7346 0.147814 21.7301 0.411066 22.675C0.535044 23.1254 1.044 24.0262 2.088 24.0262C2.71603 24.0262 3.91501 23.7652 3.98967 22.1584C3.98286 22.0537 3.95841 21.8014 3.91501 21.6302C3.74936 21.0157 3.66116 20.3708 3.66116 19.7065Z" fill="#E53654"/>
<path d="M5.37661 28.8286C6.38563 28.8286 7.20361 28.0106 7.20361 27.0016C7.20361 25.9926 6.38563 25.1746 5.37661 25.1746C4.36758 25.1746 3.5496 25.9926 3.5496 27.0016C3.5496 28.0106 4.36758 28.8286 5.37661 28.8286Z" fill="#E53654"/>
<path d="M37.5023 19.7329C37.5023 19.7941 37.5038 19.8554 37.5069 19.9166C37.5223 20.222 37.4783 21.0667 37.1738 22.0686C36.8756 23.0497 36.3885 23.9826 35.6741 24.6921C34.5272 25.8311 33.1732 27.1443 31.9106 28.357C31.1734 27.6858 30.1738 27.1826 28.9273 27.1135C25.2478 26.6091 22.446 23.4765 22.446 19.7329C22.446 15.641 25.7928 12.2812 29.9742 12.2812H30.4624C31.0714 12.2812 32.2895 11.9158 32.2895 10.4542C32.2895 9.84518 31.9241 8.62718 30.4624 8.62718H29.9742C23.7984 8.62718 18.792 13.5994 18.792 19.7329C18.792 25.4154 23.0892 30.101 28.6323 30.7594C28.8731 30.7594 29.0733 30.8142 29.2391 30.9054C29.3596 30.9716 29.4619 31.057 29.5484 31.1546C29.8734 31.5214 29.9742 32.0596 29.9742 32.3933V34.1703C29.9742 35.0587 30.5705 34.6885 30.8687 34.3924C30.942 34.3234 31.0207 34.2493 31.1045 34.1703C31.5863 33.7159 32.235 33.1013 32.9719 32.3987L32.9776 32.3933C33.1779 32.2024 33.3846 32.005 33.5963 31.8026C35.0878 30.3763 36.823 28.7009 38.249 27.2847C40.7538 24.7971 41.2309 21.2136 41.1563 19.7329C41.1563 18.7048 41.0157 17.7093 40.7524 16.7644C40.6284 16.314 40.1195 15.4132 39.0755 15.4132C38.4474 15.4132 37.2485 15.6742 37.1738 17.281C37.1806 17.3857 37.2051 17.638 37.2485 17.8092C37.4141 18.4237 37.5023 19.0686 37.5023 19.7329Z" fill="#5AD5A1"/>
<path d="M35.7869 10.6108C34.7778 10.6108 33.9599 11.4288 33.9599 12.4378C33.9599 13.4468 34.7778 14.2648 35.7869 14.2648C36.7959 14.2648 37.6139 13.4468 37.6139 12.4378C37.6139 11.4288 36.7959 10.6108 35.7869 10.6108Z" fill="#5AD5A1"/>
<path d="M16.704 19.5452L11.0319 23.9084C10.2321 24.5236 9.08506 24.3739 8.46985 23.5742C7.85463 22.7744 8.00425 21.6273 8.80403 21.0121L15.5589 15.816C15.6729 15.7243 15.7961 15.6478 15.9255 15.587C16.4123 15.3582 16.9867 15.3516 17.4859 15.5885C17.614 15.649 17.736 15.725 17.8489 15.8159L23.49 20.1552L29.1621 15.7921C29.9619 15.1769 31.1089 15.3265 31.7241 16.1263C32.3394 16.926 32.1897 18.0731 31.39 18.6883L24.6353 23.8843C24.5212 23.9762 24.3978 24.0528 24.2683 24.1136C24.0206 24.2305 23.7546 24.2875 23.49 24.2873C23.2254 24.2875 22.9594 24.2305 22.7117 24.1136C22.5822 24.0528 22.4589 23.9762 22.3448 23.8843L16.704 19.5452Z" fill="#26212B"/>
</svg>
